<?xml version="1.0" encoding="UTF-8"?>
<svg xmlns="http://www.w3.org/2000/svg" xmlns:xlink="http://www.w3.org/1999/xlink" width="420px" height="321px" viewBox="0 0 419 321" version="1.1">
<defs>
<filter id="alpha" filterUnits="objectBoundingBox" x="0%" y="0%" width="100%" height="100%">
  <feColorMatrix type="matrix" in="SourceGraphic" values="0 0 0 0 1 0 0 0 0 1 0 0 0 0 1 0 0 0 1 0"/>
</filter>
<mask id="mask0">
  <g filter="url(#alpha)">
<rect x="0" y="0" width="419" height="321" style="fill:rgb(0%,0%,0%);fill-opacity:0.988235;stroke:none;"/>
  </g>
</mask>
<clipPath id="clip1">
  <rect x="0" y="0" width="419" height="321"/>
</clipPath>
<g id="surface5" clip-path="url(#clip1)">
<path style="fill:none;stroke-width:0.75;stroke-linecap:butt;stroke-linejoin:miter;stroke:rgb(67.843137%,66.666667%,66.666667%);stroke-opacity:1;stroke-miterlimit:10;" d="M 241.311317 181.391966 L 241.311317 -198.290423 " transform="matrix(0.821569,0,0,0.823077,-29.878808,167.673115)"/>
</g>
</defs>
<g id="surface1">
<path style="fill:none;stroke-width:0.75;stroke-linecap:butt;stroke-linejoin:miter;stroke:rgb(67.843137%,66.666667%,66.666667%);stroke-opacity:1;stroke-miterlimit:10;" d="M 41.769253 1.502947 L 540.738525 1.502947 " transform="matrix(0.821569,0,0,0.823077,-29.878808,167.673115)"/>
<path style="fill:none;stroke-width:0.75;stroke-linecap:butt;stroke-linejoin:miter;stroke:rgb(67.843137%,66.666667%,66.666667%);stroke-opacity:1;stroke-miterlimit:10;" d="M 42.258979 21.473741 L 540.738525 21.473741 " transform="matrix(0.821569,0,0,0.823077,-29.878808,167.673115)"/>
<path style="fill:none;stroke-width:0.75;stroke-linecap:butt;stroke-linejoin:miter;stroke:rgb(67.843137%,66.666667%,66.666667%);stroke-opacity:1;stroke-miterlimit:10;" d="M 42.258979 41.43979 L 540.738525 41.43979 " transform="matrix(0.821569,0,0,0.823077,-29.878808,167.673115)"/>
<path style="fill:none;stroke-width:0.75;stroke-linecap:butt;stroke-linejoin:miter;stroke:rgb(67.843137%,66.666667%,66.666667%);stroke-opacity:1;stroke-miterlimit:10;" d="M 41.759744 61.405838 L 540.738525 61.405838 " transform="matrix(0.821569,0,0,0.823077,-29.878808,167.673115)"/>
<path style="fill:none;stroke-width:0.75;stroke-linecap:butt;stroke-linejoin:miter;stroke:rgb(67.843137%,66.666667%,66.666667%);stroke-opacity:1;stroke-miterlimit:10;" d="M 41.759744 81.371887 L 540.738525 81.371887 " transform="matrix(0.821569,0,0,0.823077,-29.878808,167.673115)"/>
<path style="fill:none;stroke-width:0.75;stroke-linecap:butt;stroke-linejoin:miter;stroke:rgb(67.843137%,66.666667%,66.666667%);stroke-opacity:1;stroke-miterlimit:10;" d="M 42.900854 101.337935 L 540.824108 101.337935 " transform="matrix(0.821569,0,0,0.823077,-29.878808,167.673115)"/>
<path style="fill:none;stroke-width:0.75;stroke-linecap:butt;stroke-linejoin:miter;stroke:rgb(67.843137%,66.666667%,66.666667%);stroke-opacity:1;stroke-miterlimit:10;" d="M 42.282752 121.303984 L 540.738525 121.303984 " transform="matrix(0.821569,0,0,0.823077,-29.878808,167.673115)"/>
<path style="fill:none;stroke-width:0.75;stroke-linecap:butt;stroke-linejoin:miter;stroke:rgb(67.843137%,66.666667%,66.666667%);stroke-opacity:1;stroke-miterlimit:10;" d="M 42.282752 141.270032 L 540.738525 141.270032 " transform="matrix(0.821569,0,0,0.823077,-29.878808,167.673115)"/>
<path style="fill:none;stroke-width:0.75;stroke-linecap:butt;stroke-linejoin:miter;stroke:rgb(67.843137%,66.666667%,66.666667%);stroke-opacity:1;stroke-miterlimit:10;" d="M 42.282752 161.236081 L 540.738525 161.236081 " transform="matrix(0.821569,0,0,0.823077,-29.878808,167.673115)"/>
<path style="fill:none;stroke-width:0.75;stroke-linecap:butt;stroke-linejoin:miter;stroke:rgb(67.843137%,66.666667%,66.666667%);stroke-opacity:1;stroke-miterlimit:10;" d="M 42.282752 181.206875 L 540.738525 181.206875 " transform="matrix(0.821569,0,0,0.823077,-29.878808,167.673115)"/>
<path style="fill:none;stroke-width:0.75;stroke-linecap:butt;stroke-linejoin:miter;stroke:rgb(67.843137%,66.666667%,66.666667%);stroke-opacity:1;stroke-miterlimit:10;" d="M 41.769253 181.268572 L 41.769253 1.502947 " transform="matrix(0.821569,0,0,0.823077,-29.878808,167.673115)"/>
<path style="fill:none;stroke-width:0.75;stroke-linecap:butt;stroke-linejoin:miter;stroke:rgb(67.843137%,66.666667%,66.666667%);stroke-opacity:1;stroke-miterlimit:10;" d="M 61.73392 181.268572 L 61.73392 1.502947 " transform="matrix(0.821569,0,0,0.823077,-29.878808,167.673115)"/>
<path style="fill:none;stroke-width:0.75;stroke-linecap:butt;stroke-linejoin:miter;stroke:rgb(67.843137%,66.666667%,66.666667%);stroke-opacity:1;stroke-miterlimit:10;" d="M 81.698586 181.268572 L 81.698586 1.502947 " transform="matrix(0.821569,0,0,0.823077,-29.878808,167.673115)"/>
<path style="fill:none;stroke-width:0.75;stroke-linecap:butt;stroke-linejoin:miter;stroke:rgb(67.843137%,66.666667%,66.666667%);stroke-opacity:1;stroke-miterlimit:10;" d="M 101.668007 181.268572 L 101.668007 1.502947 " transform="matrix(0.821569,0,0,0.823077,-29.878808,167.673115)"/>
<path style="fill:none;stroke-width:0.75;stroke-linecap:butt;stroke-linejoin:miter;stroke:rgb(67.843137%,66.666667%,66.666667%);stroke-opacity:1;stroke-miterlimit:10;" d="M 121.632674 181.083481 L 121.632674 1.502947 " transform="matrix(0.821569,0,0,0.823077,-29.878808,167.673115)"/>
<path style="fill:none;stroke-width:0.75;stroke-linecap:butt;stroke-linejoin:miter;stroke:rgb(67.843137%,66.666667%,66.666667%);stroke-opacity:1;stroke-miterlimit:10;" d="M 141.602095 181.083481 L 141.602095 1.502947 " transform="matrix(0.821569,0,0,0.823077,-29.878808,167.673115)"/>
<path style="fill:none;stroke-width:0.75;stroke-linecap:butt;stroke-linejoin:miter;stroke:rgb(67.843137%,66.666667%,66.666667%);stroke-opacity:1;stroke-miterlimit:10;" d="M 161.566762 181.083481 L 161.566762 1.502947 " transform="matrix(0.821569,0,0,0.823077,-29.878808,167.673115)"/>
<path style="fill:none;stroke-width:0.75;stroke-linecap:butt;stroke-linejoin:miter;stroke:rgb(67.843137%,66.666667%,66.666667%);stroke-opacity:1;stroke-miterlimit:10;" d="M 181.531429 181.083481 L 181.531429 1.502947 " transform="matrix(0.821569,0,0,0.823077,-29.878808,167.673115)"/>
<path style="fill:none;stroke-width:0.75;stroke-linecap:butt;stroke-linejoin:miter;stroke:rgb(67.843137%,66.666667%,66.666667%);stroke-opacity:1;stroke-miterlimit:10;" d="M 201.50085 181.586548 L 201.50085 1.502947 " transform="matrix(0.821569,0,0,0.823077,-29.878808,167.673115)"/>
<path style="fill:none;stroke-width:0.75;stroke-linecap:butt;stroke-linejoin:miter;stroke:rgb(67.843137%,66.666667%,66.666667%);stroke-opacity:1;stroke-miterlimit:10;" d="M 221.465516 180.646857 L 221.465516 2.006013 " transform="matrix(0.821569,0,0,0.823077,-29.878808,167.673115)"/>
<path style="fill:none;stroke-width:0.75;stroke-linecap:butt;stroke-linejoin:miter;stroke:rgb(67.843137%,66.666667%,66.666667%);stroke-opacity:1;stroke-miterlimit:10;" d="M 261.314021 181.206875 L 261.314021 1.517185 " transform="matrix(0.821569,0,0,0.823077,-29.878808,167.673115)"/>
<path style="fill:none;stroke-width:0.75;stroke-linecap:butt;stroke-linejoin:miter;stroke:rgb(67.843137%,66.666667%,66.666667%);stroke-opacity:1;stroke-miterlimit:10;" d="M 281.273933 181.206875 L 281.273933 1.517185 " transform="matrix(0.821569,0,0,0.823077,-29.878808,167.673115)"/>
<path style="fill:none;stroke-width:0.75;stroke-linecap:butt;stroke-linejoin:miter;stroke:rgb(67.843137%,66.666667%,66.666667%);stroke-opacity:1;stroke-miterlimit:10;" d="M 301.243354 181.206875 L 301.243354 1.517185 " transform="matrix(0.821569,0,0,0.823077,-29.878808,167.673115)"/>
<path style="fill:none;stroke-width:0.75;stroke-linecap:butt;stroke-linejoin:miter;stroke:rgb(67.843137%,66.666667%,66.666667%);stroke-opacity:1;stroke-miterlimit:10;" d="M 321.208021 181.206875 L 321.208021 1.517185 " transform="matrix(0.821569,0,0,0.823077,-29.878808,167.673115)"/>
<path style="fill:none;stroke-width:0.75;stroke-linecap:butt;stroke-linejoin:miter;stroke:rgb(67.843137%,66.666667%,66.666667%);stroke-opacity:1;stroke-miterlimit:10;" d="M 341.177442 181.206875 L 341.177442 1.502947 " transform="matrix(0.821569,0,0,0.823077,-29.878808,167.673115)"/>
<path style="fill:none;stroke-width:0.75;stroke-linecap:butt;stroke-linejoin:miter;stroke:rgb(67.843137%,66.666667%,66.666667%);stroke-opacity:1;stroke-miterlimit:10;" d="M 361.142109 181.206875 L 361.142109 1.949062 " transform="matrix(0.821569,0,0,0.823077,-29.878808,167.673115)"/>
<path style="fill:none;stroke-width:0.75;stroke-linecap:butt;stroke-linejoin:miter;stroke:rgb(67.843137%,66.666667%,66.666667%);stroke-opacity:1;stroke-miterlimit:10;" d="M 381.097266 181.192637 L 381.097266 1.939571 " transform="matrix(0.821569,0,0,0.823077,-29.878808,167.673115)"/>
<path style="fill:none;stroke-width:0.75;stroke-linecap:butt;stroke-linejoin:miter;stroke:rgb(67.843137%,66.666667%,66.666667%);stroke-opacity:1;stroke-miterlimit:10;" d="M 401.061933 181.192637 L 401.061933 1.939571 " transform="matrix(0.821569,0,0,0.823077,-29.878808,167.673115)"/>
<path style="fill:none;stroke-width:0.75;stroke-linecap:butt;stroke-linejoin:miter;stroke:rgb(67.843137%,66.666667%,66.666667%);stroke-opacity:1;stroke-miterlimit:10;" d="M 421.031354 181.192637 L 421.031354 1.939571 " transform="matrix(0.821569,0,0,0.823077,-29.878808,167.673115)"/>
<path style="fill:none;stroke-width:0.75;stroke-linecap:butt;stroke-linejoin:miter;stroke:rgb(67.843137%,66.666667%,66.666667%);stroke-opacity:1;stroke-miterlimit:10;" d="M 441.010284 181.206875 L 441.010284 1.517185 " transform="matrix(0.821569,0,0,0.823077,-29.878808,167.673115)"/>
<path style=" stroke:none;fill-rule:nonzero;fill:rgb(0%,0%,0%);fill-opacity:1;" d="M 407.054688 185.316406 L 402.175781 181.648438 L 414.375 185.3125 L 402.179688 188.988281 Z M 407.054688 185.316406 "/>
<path style=" stroke:none;fill-rule:nonzero;fill:rgb(0%,0%,0%);fill-opacity:1;" d="M 407.800781 191.09375 C 408.011719 191.324219 408.167969 191.558594 408.28125 191.789062 C 408.355469 191.949219 408.484375 192.375 408.660156 193.058594 L 409.226562 192.175781 C 409.378906 191.960938 409.558594 191.753906 409.777344 191.5625 C 409.996094 191.367188 410.179688 191.234375 410.34375 191.164062 C 410.449219 191.117188 410.5625 191.09375 410.6875 191.09375 C 410.875 191.09375 411.019531 191.148438 411.132812 191.25 C 411.242188 191.355469 411.296875 191.476562 411.296875 191.628906 C 411.296875 191.796875 411.265625 191.914062 411.199219 191.976562 C 411.078125 192.085938 410.941406 192.144531 410.785156 192.144531 C 410.695312 192.144531 410.59375 192.125 410.492188 192.082031 C 410.292969 192.011719 410.15625 191.976562 410.085938 191.976562 C 409.980469 191.976562 409.863281 192.039062 409.722656 192.164062 C 409.453125 192.394531 409.132812 192.847656 408.765625 193.515625 L 409.292969 195.820312 C 409.378906 196.175781 409.449219 196.386719 409.5 196.457031 C 409.554688 196.527344 409.617188 196.5625 409.667969 196.5625 C 409.757812 196.5625 409.863281 196.507812 409.988281 196.40625 C 410.226562 196.199219 410.425781 195.933594 410.59375 195.601562 L 410.820312 195.71875 C 410.546875 196.25 410.203125 196.683594 409.785156 197.035156 C 409.546875 197.230469 409.347656 197.328125 409.183594 197.328125 C 408.941406 197.328125 408.75 197.1875 408.605469 196.90625 C 408.523438 196.730469 408.328125 195.980469 408.046875 194.652344 C 407.371094 195.867188 406.832031 196.644531 406.425781 196.992188 C 406.164062 197.214844 405.90625 197.328125 405.660156 197.328125 C 405.488281 197.328125 405.332031 197.265625 405.1875 197.136719 C 405.085938 197.039062 405.035156 196.90625 405.035156 196.742188 C 405.035156 196.59375 405.082031 196.472656 405.175781 196.371094 C 405.273438 196.273438 405.386719 196.226562 405.527344 196.226562 C 405.664062 196.226562 405.8125 196.296875 405.964844 196.441406 C 406.078125 196.542969 406.164062 196.59375 406.222656 196.59375 C 406.277344 196.59375 406.34375 196.558594 406.421875 196.488281 C 406.625 196.320312 406.902344 195.953125 407.253906 195.386719 C 407.601562 194.824219 407.832031 194.414062 407.9375 194.167969 C 407.671875 193.082031 407.527344 192.507812 407.503906 192.445312 C 407.40625 192.152344 407.277344 191.949219 407.117188 191.828125 C 406.957031 191.707031 406.722656 191.644531 406.414062 191.644531 C 406.3125 191.644531 406.199219 191.648438 406.070312 191.660156 L 406.070312 191.417969 Z M 407.800781 191.09375 "/>
<path style=" stroke:none;fill-rule:nonzero;fill:rgb(0%,0%,0%);fill-opacity:1;" d="M 28.988281 7.246094 C 29.136719 7.507812 29.238281 7.753906 29.292969 7.980469 C 29.34375 8.207031 29.402344 8.652344 29.460938 9.320312 L 29.746094 12.636719 C 30.003906 12.3125 30.378906 11.800781 30.871094 11.101562 C 31.109375 10.757812 31.402344 10.292969 31.75 9.703125 C 31.960938 9.34375 32.089844 9.089844 32.136719 8.949219 C 32.164062 8.875 32.175781 8.800781 32.175781 8.726562 C 32.175781 8.675781 32.160156 8.636719 32.132812 8.605469 C 32.101562 8.574219 32.023438 8.535156 31.894531 8.492188 C 31.769531 8.449219 31.664062 8.371094 31.578125 8.257812 C 31.492188 8.140625 31.453125 8.011719 31.453125 7.863281 C 31.453125 7.679688 31.503906 7.53125 31.605469 7.417969 C 31.710938 7.304688 31.839844 7.25 31.996094 7.25 C 32.1875 7.25 32.347656 7.332031 32.480469 7.496094 C 32.617188 7.660156 32.683594 7.886719 32.683594 8.171875 C 32.683594 8.527344 32.5625 8.933594 32.332031 9.390625 C 32.101562 9.847656 31.652344 10.546875 30.984375 11.492188 C 30.320312 12.4375 29.519531 13.46875 28.574219 14.582031 C 27.921875 15.351562 27.4375 15.835938 27.121094 16.039062 C 26.808594 16.238281 26.539062 16.335938 26.316406 16.335938 C 26.183594 16.335938 26.0625 16.285156 25.960938 16.179688 C 25.859375 16.074219 25.808594 15.953125 25.808594 15.8125 C 25.808594 15.636719 25.878906 15.476562 26.019531 15.332031 C 26.160156 15.1875 26.3125 15.117188 26.476562 15.117188 C 26.5625 15.117188 26.632812 15.136719 26.691406 15.175781 C 26.722656 15.199219 26.761719 15.261719 26.804688 15.371094 C 26.84375 15.476562 26.882812 15.546875 26.917969 15.582031 C 26.9375 15.605469 26.96875 15.617188 26.996094 15.617188 C 27.019531 15.617188 27.070312 15.59375 27.132812 15.546875 C 27.371094 15.394531 27.648438 15.152344 27.960938 14.820312 C 28.375 14.378906 28.683594 14.019531 28.878906 13.738281 L 28.519531 9.460938 C 28.457031 8.753906 28.367188 8.324219 28.246094 8.171875 C 28.125 8.019531 27.921875 7.941406 27.636719 7.941406 C 27.550781 7.941406 27.386719 7.957031 27.152344 7.984375 L 27.097656 7.734375 Z M 28.988281 7.246094 "/>
<path style="fill:none;stroke-width:0.75;stroke-linecap:butt;stroke-linejoin:miter;stroke:rgb(67.843137%,66.666667%,66.666667%);stroke-opacity:1;stroke-miterlimit:10;" d="M 460.974951 181.206875 L 460.974951 1.517185 " transform="matrix(0.821569,0,0,0.823077,-29.878808,167.673115)"/>
<path style="fill:none;stroke-width:0.75;stroke-linecap:butt;stroke-linejoin:miter;stroke:rgb(67.843137%,66.666667%,66.666667%);stroke-opacity:1;stroke-miterlimit:10;" d="M 480.939618 181.206875 L 480.939618 1.517185 " transform="matrix(0.821569,0,0,0.823077,-29.878808,167.673115)"/>
<path style="fill:none;stroke-width:0.75;stroke-linecap:butt;stroke-linejoin:miter;stroke:rgb(67.843137%,66.666667%,66.666667%);stroke-opacity:1;stroke-miterlimit:10;" d="M 500.904284 181.206875 L 500.904284 1.517185 " transform="matrix(0.821569,0,0,0.823077,-29.878808,167.673115)"/>
<path style="fill:none;stroke-width:0.75;stroke-linecap:butt;stroke-linejoin:miter;stroke:rgb(67.843137%,66.666667%,66.666667%);stroke-opacity:1;stroke-miterlimit:10;" d="M 520.873706 181.206875 L 520.873706 1.502947 " transform="matrix(0.821569,0,0,0.823077,-29.878808,167.673115)"/>
<path style="fill:none;stroke-width:0.75;stroke-linecap:butt;stroke-linejoin:miter;stroke:rgb(67.843137%,66.666667%,66.666667%);stroke-opacity:1;stroke-miterlimit:10;" d="M 540.824108 181.192637 L 540.824108 1.939571 " transform="matrix(0.821569,0,0,0.823077,-29.878808,167.673115)"/>
<path style="fill:none;stroke-width:0.75;stroke-linecap:butt;stroke-linejoin:miter;stroke:rgb(67.843137%,66.666667%,66.666667%);stroke-opacity:1;stroke-miterlimit:10;" d="M 42.268489 -178.257932 L 540.748034 -178.257932 " transform="matrix(0.821569,0,0,0.823077,-29.878808,167.673115)"/>
<path style="fill:none;stroke-width:0.75;stroke-linecap:butt;stroke-linejoin:miter;stroke:rgb(67.843137%,66.666667%,66.666667%);stroke-opacity:1;stroke-miterlimit:10;" d="M 42.268489 -158.291884 L 540.748034 -158.291884 " transform="matrix(0.821569,0,0,0.823077,-29.878808,167.673115)"/>
<path style="fill:none;stroke-width:0.75;stroke-linecap:butt;stroke-linejoin:miter;stroke:rgb(67.843137%,66.666667%,66.666667%);stroke-opacity:1;stroke-miterlimit:10;" d="M 42.268489 -138.325835 L 540.748034 -138.325835 " transform="matrix(0.821569,0,0,0.823077,-29.878808,167.673115)"/>
<path style="fill:none;stroke-width:0.75;stroke-linecap:butt;stroke-linejoin:miter;stroke:rgb(67.843137%,66.666667%,66.666667%);stroke-opacity:1;stroke-miterlimit:10;" d="M 41.769253 -118.359787 L 540.748034 -118.359787 " transform="matrix(0.821569,0,0,0.823077,-29.878808,167.673115)"/>
<path style="fill:none;stroke-width:0.75;stroke-linecap:butt;stroke-linejoin:miter;stroke:rgb(67.843137%,66.666667%,66.666667%);stroke-opacity:1;stroke-miterlimit:10;" d="M 41.769253 -98.393738 L 540.748034 -98.393738 " transform="matrix(0.821569,0,0,0.823077,-29.878808,167.673115)"/>
<path style="fill:none;stroke-width:0.75;stroke-linecap:butt;stroke-linejoin:miter;stroke:rgb(67.843137%,66.666667%,66.666667%);stroke-opacity:1;stroke-miterlimit:10;" d="M 42.905608 -78.42769 L 540.748034 -78.42769 " transform="matrix(0.821569,0,0,0.823077,-29.878808,167.673115)"/>
<path style="fill:none;stroke-width:0.75;stroke-linecap:butt;stroke-linejoin:miter;stroke:rgb(67.843137%,66.666667%,66.666667%);stroke-opacity:1;stroke-miterlimit:10;" d="M 42.292262 -58.461641 L 540.748034 -58.461641 " transform="matrix(0.821569,0,0,0.823077,-29.878808,167.673115)"/>
<path style="fill:none;stroke-width:0.75;stroke-linecap:butt;stroke-linejoin:miter;stroke:rgb(67.843137%,66.666667%,66.666667%);stroke-opacity:1;stroke-miterlimit:10;" d="M 42.292262 -38.490847 L 540.748034 -38.490847 " transform="matrix(0.821569,0,0,0.823077,-29.878808,167.673115)"/>
<path style="fill:none;stroke-width:0.75;stroke-linecap:butt;stroke-linejoin:miter;stroke:rgb(67.843137%,66.666667%,66.666667%);stroke-opacity:1;stroke-miterlimit:10;" d="M 42.292262 -18.529544 L 540.748034 -18.529544 " transform="matrix(0.821569,0,0,0.823077,-29.878808,167.673115)"/>
<path style="fill:none;stroke-width:0.75;stroke-linecap:butt;stroke-linejoin:miter;stroke:rgb(67.843137%,66.666667%,66.666667%);stroke-opacity:1;stroke-miterlimit:10;" d="M 41.774008 2.096186 L 41.774008 -198.632129 " transform="matrix(0.821569,0,0,0.823077,-29.878808,167.673115)"/>
<path style="fill:none;stroke-width:0.75;stroke-linecap:butt;stroke-linejoin:miter;stroke:rgb(67.843137%,66.666667%,66.666667%);stroke-opacity:1;stroke-miterlimit:10;" d="M 61.738674 2.096186 L 61.738674 -197.939226 " transform="matrix(0.821569,0,0,0.823077,-29.878808,167.673115)"/>
<path style="fill:none;stroke-width:0.75;stroke-linecap:butt;stroke-linejoin:miter;stroke:rgb(67.843137%,66.666667%,66.666667%);stroke-opacity:1;stroke-miterlimit:10;" d="M 101.672762 2.096186 L 101.672762 -197.939226 " transform="matrix(0.821569,0,0,0.823077,-29.878808,167.673115)"/>
<path style="fill:none;stroke-width:0.75;stroke-linecap:butt;stroke-linejoin:miter;stroke:rgb(67.843137%,66.666667%,66.666667%);stroke-opacity:1;stroke-miterlimit:10;" d="M 121.642183 1.474471 L 121.642183 -197.939226 " transform="matrix(0.821569,0,0,0.823077,-29.878808,167.673115)"/>
<path style="fill:none;stroke-width:0.75;stroke-linecap:butt;stroke-linejoin:miter;stroke:rgb(67.843137%,66.666667%,66.666667%);stroke-opacity:1;stroke-miterlimit:10;" d="M 141.60685 1.474471 L 141.60685 -197.939226 " transform="matrix(0.821569,0,0,0.823077,-29.878808,167.673115)"/>
<path style="fill:none;stroke-width:0.75;stroke-linecap:butt;stroke-linejoin:miter;stroke:rgb(67.843137%,66.666667%,66.666667%);stroke-opacity:1;stroke-miterlimit:10;" d="M 161.576271 1.474471 L 161.576271 -197.939226 " transform="matrix(0.821569,0,0,0.823077,-29.878808,167.673115)"/>
<path style="fill:none;stroke-width:0.75;stroke-linecap:butt;stroke-linejoin:miter;stroke:rgb(67.843137%,66.666667%,66.666667%);stroke-opacity:1;stroke-miterlimit:10;" d="M 181.540938 1.474471 L 181.540938 -197.939226 " transform="matrix(0.821569,0,0,0.823077,-29.878808,167.673115)"/>
<path style="fill:none;stroke-width:0.75;stroke-linecap:butt;stroke-linejoin:miter;stroke:rgb(67.843137%,66.666667%,66.666667%);stroke-opacity:1;stroke-miterlimit:10;" d="M 201.505604 1.474471 L 201.505604 -197.939226 " transform="matrix(0.821569,0,0,0.823077,-29.878808,167.673115)"/>
<path style="fill:none;stroke-width:0.75;stroke-linecap:butt;stroke-linejoin:miter;stroke:rgb(67.843137%,66.666667%,66.666667%);stroke-opacity:1;stroke-miterlimit:10;" d="M 221.475026 0.885978 L 221.475026 -198.228727 " transform="matrix(0.821569,0,0,0.823077,-29.878808,167.673115)"/>
<path style="fill:none;stroke-width:0.75;stroke-linecap:butt;stroke-linejoin:miter;stroke:rgb(67.843137%,66.666667%,66.666667%);stroke-opacity:1;stroke-miterlimit:10;" d="M 261.309266 1.44125 L 261.309266 -198.280932 " transform="matrix(0.821569,0,0,0.823077,-29.878808,167.673115)"/>
<path style="fill:none;stroke-width:0.75;stroke-linecap:butt;stroke-linejoin:miter;stroke:rgb(67.843137%,66.666667%,66.666667%);stroke-opacity:1;stroke-miterlimit:10;" d="M 281.269178 1.44125 L 281.269178 -198.280932 " transform="matrix(0.821569,0,0,0.823077,-29.878808,167.673115)"/>
<path style="fill:none;stroke-width:0.75;stroke-linecap:butt;stroke-linejoin:miter;stroke:rgb(67.843137%,66.666667%,66.666667%);stroke-opacity:1;stroke-miterlimit:10;" d="M 301.233845 1.44125 L 301.233845 -198.280932 " transform="matrix(0.821569,0,0,0.823077,-29.878808,167.673115)"/>
<path style="fill:none;stroke-width:0.75;stroke-linecap:butt;stroke-linejoin:miter;stroke:rgb(67.843137%,66.666667%,66.666667%);stroke-opacity:1;stroke-miterlimit:10;" d="M 321.203266 1.44125 L 321.203266 -198.280932 " transform="matrix(0.821569,0,0,0.823077,-29.878808,167.673115)"/>
<path style="fill:none;stroke-width:0.75;stroke-linecap:butt;stroke-linejoin:miter;stroke:rgb(67.843137%,66.666667%,66.666667%);stroke-opacity:1;stroke-miterlimit:10;" d="M 341.172687 1.44125 L 341.172687 -198.290423 " transform="matrix(0.821569,0,0,0.823077,-29.878808,167.673115)"/>
<path style="fill:none;stroke-width:0.75;stroke-linecap:butt;stroke-linejoin:miter;stroke:rgb(67.843137%,66.666667%,66.666667%);stroke-opacity:1;stroke-miterlimit:10;" d="M 361.137354 1.44125 L 361.137354 -197.796849 " transform="matrix(0.821569,0,0,0.823077,-29.878808,167.673115)"/>
<path style="fill:none;stroke-width:0.75;stroke-linecap:butt;stroke-linejoin:miter;stroke:rgb(67.843137%,66.666667%,66.666667%);stroke-opacity:1;stroke-miterlimit:10;" d="M 381.092511 1.427012 L 381.092511 -197.811086 " transform="matrix(0.821569,0,0,0.823077,-29.878808,167.673115)"/>
<path style="fill:none;stroke-width:0.75;stroke-linecap:butt;stroke-linejoin:miter;stroke:rgb(67.843137%,66.666667%,66.666667%);stroke-opacity:1;stroke-miterlimit:10;" d="M 401.057178 1.427012 L 401.057178 -197.811086 " transform="matrix(0.821569,0,0,0.823077,-29.878808,167.673115)"/>
<path style="fill:none;stroke-width:0.75;stroke-linecap:butt;stroke-linejoin:miter;stroke:rgb(67.843137%,66.666667%,66.666667%);stroke-opacity:1;stroke-miterlimit:10;" d="M 421.021845 1.427012 L 421.021845 -197.811086 " transform="matrix(0.821569,0,0,0.823077,-29.878808,167.673115)"/>
<path style="fill:none;stroke-width:0.75;stroke-linecap:butt;stroke-linejoin:miter;stroke:rgb(67.843137%,66.666667%,66.666667%);stroke-opacity:1;stroke-miterlimit:10;" d="M 441.000775 1.44125 L 441.000775 -198.280932 " transform="matrix(0.821569,0,0,0.823077,-29.878808,167.673115)"/>
<path style="fill:none;stroke-width:0.75;stroke-linecap:butt;stroke-linejoin:miter;stroke:rgb(67.843137%,66.666667%,66.666667%);stroke-opacity:1;stroke-miterlimit:10;" d="M 460.970196 1.44125 L 460.970196 -198.280932 " transform="matrix(0.821569,0,0,0.823077,-29.878808,167.673115)"/>
<path style="fill:none;stroke-width:0.75;stroke-linecap:butt;stroke-linejoin:miter;stroke:rgb(67.843137%,66.666667%,66.666667%);stroke-opacity:1;stroke-miterlimit:10;" d="M 480.934863 1.44125 L 480.934863 -198.280932 " transform="matrix(0.821569,0,0,0.823077,-29.878808,167.673115)"/>
<path style="fill:none;stroke-width:0.75;stroke-linecap:butt;stroke-linejoin:miter;stroke:rgb(67.843137%,66.666667%,66.666667%);stroke-opacity:1;stroke-miterlimit:10;" d="M 500.89953 1.44125 L 500.89953 -198.280932 " transform="matrix(0.821569,0,0,0.823077,-29.878808,167.673115)"/>
<path style="fill:none;stroke-width:0.75;stroke-linecap:butt;stroke-linejoin:miter;stroke:rgb(67.843137%,66.666667%,66.666667%);stroke-opacity:1;stroke-miterlimit:10;" d="M 520.87846 1.44125 L 520.87846 -198.290423 " transform="matrix(0.821569,0,0,0.823077,-29.878808,167.673115)"/>
<path style="fill:none;stroke-width:0.75;stroke-linecap:butt;stroke-linejoin:miter;stroke:rgb(67.843137%,66.666667%,66.666667%);stroke-opacity:1;stroke-miterlimit:10;" d="M 540.828863 1.427012 L 540.828863 -197.811086 " transform="matrix(0.821569,0,0,0.823077,-29.878808,167.673115)"/>
<path style="fill:none;stroke-width:1;stroke-linecap:butt;stroke-linejoin:miter;stroke:rgb(0%,0%,0%);stroke-opacity:1;stroke-miterlimit:10;" d="M 81.698586 181.268572 L 81.698586 -189.534217 " transform="matrix(0.821569,0,0,0.823077,-29.878808,167.673115)"/>
<path style=" stroke:none;fill-rule:nonzero;fill:rgb(0%,0%,0%);fill-opacity:1;" d="M 37.238281 11.671875 L 33.578125 16.5625 L 37.238281 4.335938 L 40.90625 16.558594 Z M 37.238281 11.671875 "/>
<use xlink:href="#surface5" mask="url(#mask0)"/>
<path style="fill:none;stroke-width:1;stroke-linecap:butt;stroke-linejoin:miter;stroke:rgb(0%,0%,0%);stroke-opacity:1;stroke-miterlimit:10;" d="M 41.640878 21.435774 L 533.915639 21.435774 " transform="matrix(0.821569,0,0,0.823077,-29.878808,167.673115)"/>
<path style="fill:none;stroke-width:0.75;stroke-linecap:butt;stroke-linejoin:miter;stroke:rgb(67.843137%,66.666667%,66.666667%);stroke-opacity:1;stroke-miterlimit:10;" d="M 41.56005 -198.228727 L 540.995275 -198.228727 " transform="matrix(0.821569,0,0,0.823077,-29.878808,167.673115)"/>
<path style="fill:none;stroke-width:1.25;stroke-linecap:butt;stroke-linejoin:round;stroke:rgb(80%,46.27451%,12.156863%);stroke-opacity:1;stroke-miterlimit:8;" d="M 61.738674 -172.415716 C 88.084046 -130.096425 187.08483 144.895908 329.733062 154.995207 C 446.906018 151.991046 500.918548 -31.761145 520.87846 -71.019322 " transform="matrix(0.821569,0,0,0.823077,-29.878808,167.673115)"/>
<path style="fill:none;stroke-width:1;stroke-linecap:butt;stroke-linejoin:round;stroke:rgb(0%,0%,0%);stroke-opacity:1;stroke-dasharray:7.5,3;stroke-miterlimit:10;" d="M 281.273933 141.270032 L 281.273933 21.772734 " transform="matrix(0.821569,0,0,0.823077,-29.878808,167.673115)"/>
<path style="fill:none;stroke-width:1;stroke-linecap:butt;stroke-linejoin:round;stroke:rgb(0%,0%,0%);stroke-opacity:1;stroke-dasharray:7.5,3;stroke-miterlimit:10;" d="M 81.698586 141.270032 L 281.273933 141.270032 " transform="matrix(0.821569,0,0,0.823077,-29.878808,167.673115)"/>
<path style=" stroke:none;fill-rule:nonzero;fill:rgb(100%,100%,100%);fill-opacity:1;" d="M 28.113281 165.945312 L 33.753906 165.945312 L 33.753906 174.660156 L 28.113281 174.660156 Z M 28.113281 165.945312 "/>
<path style=" stroke:none;fill-rule:nonzero;fill:rgb(0%,0%,0%);fill-opacity:1;" d="M 29.09375 165.882812 L 31.136719 164.886719 L 31.339844 164.886719 L 31.339844 171.964844 C 31.339844 172.433594 31.355469 172.726562 31.398438 172.84375 C 31.4375 172.957031 31.515625 173.046875 31.640625 173.109375 C 31.765625 173.167969 32.015625 173.203125 32.398438 173.210938 L 32.398438 173.441406 L 29.242188 173.441406 L 29.242188 173.210938 C 29.636719 173.203125 29.894531 173.171875 30.011719 173.109375 C 30.125 173.050781 30.203125 172.96875 30.253906 172.871094 C 30.296875 172.769531 30.320312 172.464844 30.320312 171.964844 L 30.320312 167.4375 C 30.320312 166.828125 30.300781 166.4375 30.257812 166.265625 C 30.230469 166.132812 30.175781 166.035156 30.101562 165.972656 C 30.023438 165.910156 29.933594 165.878906 29.828125 165.878906 C 29.671875 165.878906 29.464844 165.945312 29.191406 166.070312 Z M 29.09375 165.882812 "/>
<path style=" stroke:none;fill-rule:nonzero;fill:rgb(100%,100%,100%);fill-opacity:1;" d="M 50.65625 187.714844 L 54.40625 187.714844 L 54.40625 198.824219 L 50.65625 198.824219 Z M 50.65625 187.714844 "/>
<path style=" stroke:none;fill-rule:nonzero;fill:rgb(0%,0%,0%);fill-opacity:1;" d="M 51.921875 190.050781 L 53.960938 189.054688 L 54.164062 189.054688 L 54.164062 196.132812 C 54.164062 196.601562 54.183594 196.894531 54.222656 197.007812 C 54.261719 197.125 54.34375 197.214844 54.464844 197.273438 C 54.589844 197.335938 54.84375 197.371094 55.21875 197.378906 L 55.21875 197.609375 L 52.066406 197.609375 L 52.066406 197.378906 C 52.460938 197.371094 52.714844 197.335938 52.835938 197.277344 C 52.949219 197.21875 53.027344 197.136719 53.078125 197.035156 C 53.121094 196.9375 53.144531 196.632812 53.144531 196.132812 L 53.144531 191.605469 C 53.144531 190.996094 53.125 190.605469 53.082031 190.433594 C 53.054688 190.300781 53 190.203125 52.925781 190.140625 C 52.847656 190.078125 52.757812 190.046875 52.648438 190.046875 C 52.496094 190.046875 52.285156 190.113281 52.015625 190.242188 Z M 51.921875 190.050781 "/>
<path style=" stroke:none;fill-rule:nonzero;fill:rgb(0%,0%,0%);fill-opacity:1;" d="M 31.421875 188.390625 C 31.964844 188.390625 32.445312 188.511719 32.867188 188.746094 C 33.285156 188.984375 33.613281 189.335938 33.851562 189.796875 C 34.085938 190.261719 34.210938 190.742188 34.210938 191.242188 C 34.210938 192.121094 33.953125 193.050781 33.445312 194.019531 C 32.933594 194.992188 32.265625 195.730469 31.441406 196.242188 C 30.621094 196.75 29.769531 197.007812 28.894531 197.007812 C 28.257812 197.007812 27.730469 196.867188 27.304688 196.582031 C 26.878906 196.300781 26.566406 195.929688 26.363281 195.46875 C 26.160156 195.007812 26.058594 194.5625 26.058594 194.125 C 26.058594 193.351562 26.246094 192.597656 26.613281 191.84375 C 26.980469 191.09375 27.417969 190.464844 27.929688 189.960938 C 28.441406 189.457031 28.988281 189.066406 29.566406 188.796875 C 30.152344 188.527344 30.769531 188.390625 31.421875 188.390625 Z M 31.214844 188.78125 C 30.8125 188.78125 30.417969 188.882812 30.035156 189.082031 C 29.652344 189.28125 29.265625 189.613281 28.886719 190.066406 C 28.507812 190.523438 28.167969 191.117188 27.867188 191.855469 C 27.496094 192.765625 27.308594 193.621094 27.308594 194.425781 C 27.308594 195 27.457031 195.511719 27.75 195.953125 C 28.042969 196.398438 28.496094 196.621094 29.101562 196.621094 C 29.46875 196.621094 29.832031 196.53125 30.179688 196.347656 C 30.535156 196.164062 30.898438 195.851562 31.285156 195.410156 C 31.765625 194.855469 32.164062 194.148438 32.496094 193.289062 C 32.824219 192.425781 32.988281 191.625 32.988281 190.878906 C 32.988281 190.328125 32.839844 189.839844 32.546875 189.414062 C 32.25 188.992188 31.808594 188.78125 31.214844 188.78125 Z M 31.214844 188.78125 "/>
<path style=" stroke:none;fill-rule:nonzero;fill:rgb(80%,46.27451%,12.156863%);fill-opacity:1;" d="M 201.207031 282.023438 C 200.148438 282.023438 199.285156 282.886719 199.285156 283.953125 C 199.285156 285.011719 200.148438 285.875 201.207031 285.875 C 202.269531 285.875 203.132812 285.011719 203.132812 283.953125 C 203.132812 282.886719 202.269531 282.023438 201.207031 282.023438 Z M 201.207031 282.023438 "/>
<path style=" stroke:none;fill-rule:nonzero;fill:rgb(100%,100%,100%);fill-opacity:1;" d="M 20.171875 279.386719 L 33.984375 279.386719 L 33.984375 289.222656 L 20.171875 289.222656 Z M 20.171875 279.386719 "/>
<path style=" stroke:none;fill-rule:nonzero;fill:rgb(0%,0%,0%);fill-opacity:1;" d="M 32.925781 279.957031 L 32.925781 280.179688 C 32.394531 280.230469 31.960938 280.335938 31.625 280.492188 C 31.289062 280.652344 30.957031 280.890625 30.628906 281.214844 C 30.300781 281.539062 30.027344 281.898438 29.8125 282.296875 C 29.597656 282.691406 29.417969 283.164062 29.273438 283.710938 C 29.851562 283.316406 30.433594 283.117188 31.015625 283.117188 C 31.578125 283.117188 32.0625 283.339844 32.472656 283.789062 C 32.882812 284.234375 33.089844 284.808594 33.089844 285.511719 C 33.089844 286.191406 32.882812 286.808594 32.46875 287.367188 C 31.96875 288.046875 31.308594 288.386719 30.484375 288.386719 C 29.925781 288.386719 29.449219 288.203125 29.058594 287.835938 C 28.292969 287.121094 27.914062 286.195312 27.914062 285.058594 C 27.914062 284.332031 28.058594 283.640625 28.355469 282.984375 C 28.648438 282.332031 29.066406 281.75 29.613281 281.246094 C 30.160156 280.738281 30.679688 280.398438 31.179688 280.222656 C 31.679688 280.046875 32.144531 279.957031 32.578125 279.957031 Z M 29.167969 284.148438 C 29.097656 284.6875 29.058594 285.121094 29.058594 285.453125 C 29.058594 285.835938 29.132812 286.253906 29.273438 286.703125 C 29.417969 287.148438 29.628906 287.507812 29.914062 287.769531 C 30.117188 287.957031 30.367188 288.050781 30.660156 288.050781 C 31.011719 288.050781 31.324219 287.886719 31.601562 287.558594 C 31.875 287.234375 32.015625 286.765625 32.015625 286.160156 C 32.015625 285.476562 31.878906 284.886719 31.605469 284.386719 C 31.332031 283.890625 30.941406 283.640625 30.4375 283.640625 C 30.285156 283.640625 30.121094 283.671875 29.945312 283.734375 C 29.769531 283.796875 29.511719 283.9375 29.167969 284.148438 Z M 29.167969 284.148438 "/>
<path style=" stroke:none;fill-rule:nonzero;fill:rgb(0%,0%,0%);fill-opacity:1;" d="M 20.863281 284.792969 L 27.207031 284.792969 L 27.207031 285.386719 L 20.863281 285.386719 Z M 20.863281 284.792969 "/>
<path style=" stroke:none;fill-rule:nonzero;fill:rgb(100%,100%,100%);fill-opacity:1;" d="M 191.960938 171.972656 L 208 171.972656 L 208 182.363281 L 191.960938 182.363281 Z M 191.960938 171.972656 "/>
<path style=" stroke:none;fill-rule:nonzero;fill:rgb(0%,0%,0%);fill-opacity:1;" d="M 196.125 173.910156 L 198.160156 172.949219 L 198.359375 172.949219 L 198.359375 179.800781 C 198.359375 180.257812 198.382812 180.539062 198.417969 180.652344 C 198.457031 180.761719 198.539062 180.847656 198.664062 180.910156 C 198.785156 180.96875 199.039062 181.003906 199.414062 181.011719 L 199.414062 181.234375 L 196.273438 181.234375 L 196.273438 181.011719 C 196.664062 181.003906 196.921875 180.96875 197.035156 180.910156 C 197.152344 180.855469 197.230469 180.777344 197.277344 180.679688 C 197.324219 180.582031 197.347656 180.289062 197.347656 179.800781 L 197.347656 175.417969 C 197.347656 174.828125 197.324219 174.449219 197.285156 174.28125 C 197.253906 174.15625 197.203125 174.058594 197.128906 174 C 197.050781 173.941406 196.960938 173.910156 196.855469 173.910156 C 196.699219 173.910156 196.488281 173.972656 196.21875 174.097656 Z M 196.125 173.910156 "/>
<path style=" stroke:none;fill-rule:nonzero;fill:rgb(0%,0%,0%);fill-opacity:1;" d="M 201.414062 177.222656 C 201.414062 176.296875 201.554688 175.5 201.84375 174.832031 C 202.132812 174.164062 202.511719 173.664062 202.988281 173.339844 C 203.359375 173.078125 203.738281 172.949219 204.136719 172.949219 C 204.777344 172.949219 205.351562 173.265625 205.863281 173.902344 C 206.5 174.6875 206.820312 175.75 206.820312 177.097656 C 206.820312 178.039062 206.679688 178.839844 206.398438 179.496094 C 206.117188 180.15625 205.761719 180.632812 205.328125 180.929688 C 204.894531 181.226562 204.476562 181.375 204.074219 181.375 C 203.277344 181.375 202.613281 180.917969 202.082031 180.007812 C 201.636719 179.234375 201.414062 178.308594 201.414062 177.222656 Z M 202.621094 177.371094 C 202.621094 178.488281 202.761719 179.402344 203.046875 180.105469 C 203.28125 180.703125 203.628906 181 204.09375 181 C 204.316406 181 204.546875 180.902344 204.785156 180.707031 C 205.023438 180.515625 205.203125 180.191406 205.328125 179.734375 C 205.515625 179.050781 205.609375 178.082031 205.609375 176.832031 C 205.609375 175.90625 205.511719 175.132812 205.316406 174.515625 C 205.167969 174.058594 204.976562 173.730469 204.742188 173.539062 C 204.574219 173.410156 204.371094 173.34375 204.132812 173.34375 C 203.851562 173.34375 203.605469 173.464844 203.386719 173.707031 C 203.09375 174.039062 202.890625 174.558594 202.78125 175.269531 C 202.675781 175.980469 202.621094 176.679688 202.621094 177.371094 Z M 202.621094 177.371094 "/>
<path style=" stroke:none;fill-rule:nonzero;fill:rgb(100%,100%,100%);fill-opacity:1;" d="M 83.222656 110.902344 L 132.320312 110.902344 L 132.320312 128.398438 L 83.222656 128.398438 Z M 83.222656 110.902344 "/>
<path style=" stroke:none;fill-rule:nonzero;fill:rgb(0%,0%,0%);fill-opacity:1;" d="M 118.953125 125.820312 L 118.953125 126.089844 C 118.28125 125.722656 117.714844 125.292969 117.261719 124.800781 C 116.621094 124.101562 116.121094 123.273438 115.773438 122.324219 C 115.421875 121.371094 115.25 120.382812 115.25 119.359375 C 115.25 117.859375 115.589844 116.496094 116.273438 115.257812 C 116.953125 114.023438 117.84375 113.144531 118.941406 112.609375 L 118.941406 112.914062 C 118.394531 113.242188 117.941406 113.691406 117.589844 114.261719 C 117.234375 114.832031 116.976562 115.554688 116.800781 116.429688 C 116.628906 117.304688 116.542969 118.21875 116.542969 119.167969 C 116.542969 120.203125 116.617188 121.140625 116.765625 121.988281 C 116.882812 122.65625 117.023438 123.191406 117.191406 123.59375 C 117.355469 123.996094 117.582031 124.382812 117.859375 124.757812 C 118.136719 125.128906 118.5 125.484375 118.953125 125.820312 Z M 118.953125 125.820312 "/>
<path style=" stroke:none;fill-rule:nonzero;fill:rgb(0%,0%,0%);fill-opacity:1;" d="M 126.980469 112.917969 L 126.980469 112.613281 C 127.65625 112.972656 128.222656 113.402344 128.675781 113.894531 C 129.3125 114.601562 129.808594 115.425781 130.15625 116.378906 C 130.503906 117.324219 130.679688 118.316406 130.679688 119.34375 C 130.679688 120.839844 130.339844 122.207031 129.660156 123.441406 C 128.980469 124.675781 128.089844 125.558594 126.988281 126.089844 L 126.988281 125.820312 C 127.535156 125.488281 127.992188 125.039062 128.339844 124.46875 C 128.699219 123.902344 128.957031 123.179688 129.128906 122.300781 C 129.300781 121.425781 129.386719 120.511719 129.386719 119.558594 C 129.386719 118.53125 129.3125 117.589844 129.164062 116.742188 C 129.050781 116.074219 128.910156 115.539062 128.742188 115.140625 C 128.578125 114.738281 128.351562 114.351562 128.074219 113.980469 C 127.804688 113.609375 127.4375 113.253906 126.980469 112.917969 Z M 126.980469 112.917969 "/>
<path style=" stroke:none;fill-rule:nonzero;fill:rgb(0%,0%,0%);fill-opacity:1;" d="M 87.132812 116.359375 C 87.289062 116.640625 87.390625 116.902344 87.449219 117.144531 C 87.503906 117.390625 87.566406 117.867188 87.625 118.585938 L 87.914062 122.148438 C 88.183594 121.800781 88.574219 121.25 89.082031 120.496094 C 89.328125 120.128906 89.628906 119.628906 89.988281 118.996094 C 90.210938 118.609375 90.34375 118.339844 90.386719 118.1875 C 90.414062 118.109375 90.425781 118.03125 90.425781 117.945312 C 90.425781 117.894531 90.410156 117.851562 90.378906 117.816406 C 90.347656 117.78125 90.265625 117.742188 90.136719 117.695312 C 90.003906 117.648438 89.894531 117.566406 89.808594 117.441406 C 89.722656 117.320312 89.679688 117.179688 89.679688 117.015625 C 89.679688 116.820312 89.730469 116.660156 89.839844 116.539062 C 89.945312 116.417969 90.078125 116.359375 90.238281 116.359375 C 90.433594 116.359375 90.601562 116.445312 90.738281 116.621094 C 90.875 116.796875 90.945312 117.039062 90.945312 117.351562 C 90.945312 117.730469 90.824219 118.167969 90.585938 118.65625 C 90.34375 119.148438 89.882812 119.902344 89.195312 120.914062 C 88.507812 121.929688 87.675781 123.035156 86.699219 124.234375 C 86.027344 125.058594 85.527344 125.582031 85.203125 125.796875 C 84.878906 126.011719 84.597656 126.121094 84.367188 126.121094 C 84.226562 126.121094 84.109375 126.0625 84 125.949219 C 83.894531 125.835938 83.84375 125.703125 83.84375 125.554688 C 83.84375 125.367188 83.917969 125.195312 84.066406 125.039062 C 84.210938 124.886719 84.367188 124.808594 84.535156 124.808594 C 84.625 124.808594 84.695312 124.828125 84.757812 124.875 C 84.792969 124.898438 84.832031 124.964844 84.875 125.082031 C 84.921875 125.195312 84.960938 125.269531 84.996094 125.308594 C 85.015625 125.332031 85.046875 125.34375 85.078125 125.34375 C 85.105469 125.34375 85.152344 125.320312 85.21875 125.273438 C 85.464844 125.105469 85.75 124.84375 86.074219 124.488281 C 86.503906 124.015625 86.820312 123.628906 87.027344 123.328125 L 86.652344 118.734375 C 86.589844 117.976562 86.496094 117.515625 86.367188 117.351562 C 86.246094 117.1875 86.035156 117.105469 85.734375 117.105469 C 85.644531 117.105469 85.476562 117.117188 85.234375 117.148438 L 85.179688 116.878906 Z M 87.132812 116.359375 "/>
<path style=" stroke:none;fill-rule:nonzero;fill:rgb(0%,0%,0%);fill-opacity:1;" d="M 111.660156 116.53125 L 111.542969 117.007812 L 110.566406 117.007812 L 109.828125 120.175781 C 109.503906 121.570312 109.175781 122.652344 108.847656 123.417969 C 108.378906 124.496094 107.871094 125.238281 107.335938 125.648438 C 106.925781 125.960938 106.511719 126.121094 106.101562 126.121094 C 105.835938 126.121094 105.605469 126.035156 105.421875 125.859375 C 105.28125 125.738281 105.214844 125.582031 105.214844 125.390625 C 105.214844 125.234375 105.269531 125.097656 105.382812 124.988281 C 105.496094 124.875 105.640625 124.816406 105.800781 124.816406 C 105.921875 124.816406 106.023438 124.859375 106.105469 124.941406 C 106.191406 125.023438 106.226562 125.117188 106.226562 125.222656 C 106.226562 125.328125 106.179688 125.429688 106.085938 125.519531 C 106.011719 125.585938 105.976562 125.640625 105.976562 125.671875 C 105.976562 125.714844 105.996094 125.75 106.027344 125.773438 C 106.070312 125.808594 106.128906 125.824219 106.214844 125.824219 C 106.40625 125.824219 106.609375 125.761719 106.820312 125.628906 C 107.035156 125.5 107.21875 125.304688 107.386719 125.046875 C 107.550781 124.789062 107.707031 124.414062 107.851562 123.929688 C 107.914062 123.726562 108.082031 123.054688 108.351562 121.921875 L 109.515625 117.015625 L 108.351562 117.015625 L 108.445312 116.539062 C 108.8125 116.539062 109.074219 116.511719 109.21875 116.457031 C 109.367188 116.398438 109.503906 116.292969 109.621094 116.136719 C 109.742188 115.980469 109.90625 115.683594 110.097656 115.257812 C 110.359375 114.675781 110.617188 114.226562 110.859375 113.90625 C 111.183594 113.476562 111.53125 113.15625 111.902344 112.9375 C 112.261719 112.722656 112.601562 112.617188 112.929688 112.617188 C 113.265625 112.617188 113.539062 112.707031 113.742188 112.894531 C 113.949219 113.082031 114.050781 113.285156 114.050781 113.5 C 114.050781 113.671875 114 113.8125 113.898438 113.929688 C 113.792969 114.046875 113.664062 114.101562 113.503906 114.101562 C 113.363281 114.101562 113.25 114.058594 113.164062 113.972656 C 113.078125 113.886719 113.035156 113.78125 113.035156 113.660156 C 113.035156 113.582031 113.0625 113.488281 113.121094 113.375 C 113.179688 113.261719 113.207031 113.183594 113.207031 113.148438 C 113.207031 113.078125 113.1875 113.027344 113.148438 112.992188 C 113.089844 112.945312 113.003906 112.921875 112.890625 112.921875 C 112.609375 112.921875 112.359375 113.015625 112.132812 113.210938 C 111.835938 113.46875 111.566406 113.867188 111.328125 114.414062 C 111.210938 114.699219 110.988281 115.40625 110.664062 116.535156 L 111.644531 116.535156 L 111.644531 116.53125 Z M 111.660156 116.53125 "/>
<path style=" stroke:none;fill-rule:nonzero;fill:rgb(0%,0%,0%);fill-opacity:1;" d="M 122.625 116.359375 C 122.84375 116.609375 123.007812 116.859375 123.121094 117.113281 C 123.203125 117.285156 123.332031 117.742188 123.511719 118.480469 L 124.101562 117.527344 C 124.257812 117.292969 124.449219 117.074219 124.667969 116.863281 C 124.890625 116.652344 125.089844 116.507812 125.257812 116.429688 C 125.367188 116.382812 125.480469 116.359375 125.617188 116.359375 C 125.804688 116.359375 125.960938 116.414062 126.078125 116.527344 C 126.191406 116.636719 126.246094 116.773438 126.246094 116.933594 C 126.246094 117.117188 126.214844 117.242188 126.148438 117.308594 C 126.023438 117.429688 125.878906 117.488281 125.71875 117.488281 C 125.628906 117.488281 125.53125 117.46875 125.421875 117.425781 C 125.210938 117.347656 125.070312 117.308594 124.992188 117.308594 C 124.886719 117.308594 124.765625 117.378906 124.613281 117.511719 C 124.335938 117.761719 124.011719 118.25 123.625 118.96875 L 124.171875 121.464844 C 124.257812 121.84375 124.328125 122.074219 124.390625 122.148438 C 124.445312 122.222656 124.507812 122.261719 124.5625 122.261719 C 124.65625 122.261719 124.765625 122.207031 124.886719 122.09375 C 125.136719 121.871094 125.34375 121.582031 125.519531 121.222656 L 125.753906 121.355469 C 125.46875 121.921875 125.121094 122.398438 124.679688 122.773438 C 124.433594 122.988281 124.222656 123.09375 124.058594 123.09375 C 123.804688 123.09375 123.605469 122.941406 123.457031 122.636719 C 123.367188 122.449219 123.167969 121.636719 122.875 120.203125 C 122.179688 121.511719 121.625 122.355469 121.203125 122.730469 C 120.929688 122.972656 120.671875 123.09375 120.414062 123.09375 C 120.230469 123.09375 120.074219 123.023438 119.921875 122.882812 C 119.8125 122.773438 119.765625 122.632812 119.765625 122.453125 C 119.765625 122.292969 119.816406 122.160156 119.914062 122.054688 C 120.011719 121.949219 120.132812 121.898438 120.273438 121.898438 C 120.414062 121.898438 120.566406 121.976562 120.730469 122.128906 C 120.847656 122.238281 120.933594 122.292969 120.996094 122.292969 C 121.046875 122.292969 121.117188 122.253906 121.207031 122.179688 C 121.414062 121.992188 121.703125 121.597656 122.0625 120.988281 C 122.421875 120.382812 122.660156 119.945312 122.769531 119.671875 C 122.488281 118.496094 122.339844 117.875 122.320312 117.804688 C 122.214844 117.492188 122.082031 117.273438 121.921875 117.140625 C 121.753906 117.007812 121.511719 116.945312 121.1875 116.945312 C 121.085938 116.945312 120.964844 116.949219 120.832031 116.960938 L 120.832031 116.699219 Z M 122.625 116.359375 "/>
<path style=" stroke:none;fill-rule:nonzero;fill:rgb(0%,0%,0%);fill-opacity:1;" d="M 94.738281 117.417969 L 101.761719 117.417969 L 101.761719 118.121094 L 94.738281 118.121094 Z M 94.738281 120.121094 L 101.761719 120.121094 L 101.761719 120.835938 L 94.738281 120.835938 Z M 94.738281 120.121094 "/>
<path style=" stroke:none;fill-rule:nonzero;fill:rgb(0%,0%,0%);fill-opacity:0.4;" d="M 369.648438 314.675781 C 369.648438 315.332031 369.648438 315.992188 369.648438 316.730469 C 368.582031 316.898438 369.15625 315.496094 369.074219 314.839844 C 369.074219 313.6875 369.074219 312.535156 369.074219 311.382812 C 369.730469 311.054688 369.730469 312.453125 370.226562 311.382812 C 372.03125 310.558594 373.265625 313.191406 372.195312 314.59375 C 371.703125 315.414062 370.226562 315.578125 369.648438 314.59375 Z M 371.785156 313.359375 C 372.195312 311.300781 368.746094 311.792969 369.648438 313.6875 C 369.648438 315.414062 372.195312 315.003906 371.785156 313.359375 Z M 371.785156 313.359375 "/>
<path style=" stroke:none;fill-rule:nonzero;fill:rgb(0%,0%,0%);fill-opacity:0.4;" d="M 376.960938 313.109375 C 376.632812 313.769531 375.402344 313.191406 374.660156 313.359375 C 373.019531 313.277344 374.90625 315.332031 375.894531 314.59375 C 377.949219 314.59375 374.742188 315.910156 374.003906 314.757812 C 372.441406 313.523438 373.757812 310.394531 375.730469 311.136719 C 376.46875 311.300781 376.878906 312.125 376.878906 312.945312 Z M 376.386719 312.945312 C 376.878906 311.054688 373.101562 312.125 374.660156 312.945312 C 375.238281 312.945312 375.8125 312.945312 376.386719 312.945312 Z M 376.386719 312.945312 "/>
<path style=" stroke:none;fill-rule:nonzero;fill:rgb(0%,0%,0%);fill-opacity:0.4;" d="M 380.988281 314.757812 C 381.480469 314.757812 382.054688 314.757812 382.628906 314.757812 C 382.628906 313.6875 382.628906 312.535156 382.628906 311.382812 C 383.699219 311.21875 383.125 312.617188 383.207031 313.277344 C 383.207031 313.933594 383.207031 314.59375 383.207031 315.25 C 381.480469 315.25 379.753906 315.25 377.949219 315.25 C 377.949219 314.015625 377.949219 312.699219 377.949219 311.382812 C 379.015625 311.21875 378.441406 312.617188 378.523438 313.277344 C 378.605469 313.6875 378.359375 314.59375 378.6875 314.675781 C 379.097656 314.59375 380 314.839844 380.167969 314.511719 C 380.167969 313.441406 380.167969 312.371094 380.167969 311.300781 C 381.234375 311.136719 380.660156 312.535156 380.742188 313.191406 C 380.742188 313.605469 380.742188 314.097656 380.742188 314.59375 Z M 380.988281 314.757812 "/>
<path style=" stroke:none;fill-rule:nonzero;fill:rgb(0%,0%,0%);fill-opacity:0.4;" d="M 386.246094 315.664062 C 386.492188 316.816406 383.78125 317.0625 384.847656 316.238281 C 386.082031 316.074219 385.671875 314.675781 385.261719 313.933594 C 384.929688 313.109375 384.601562 312.289062 384.273438 311.382812 C 385.261719 311.21875 385.261719 312.535156 385.671875 313.191406 C 385.835938 313.359375 386 314.757812 386.246094 314.179688 C 386.574219 313.277344 386.984375 312.371094 387.3125 311.382812 C 388.464844 311.21875 387.3125 312.617188 387.3125 313.277344 C 387.066406 314.015625 386.738281 314.839844 386.410156 315.664062 Z M 386.246094 315.664062 "/>
<path style=" stroke:none;fill-rule:nonzero;fill:rgb(0%,0%,0%);fill-opacity:0.4;" d="M 392.242188 313.109375 C 391.914062 313.769531 390.683594 313.191406 389.941406 313.359375 C 388.300781 313.277344 390.1875 315.332031 391.175781 314.59375 C 393.230469 314.59375 390.023438 315.910156 389.285156 314.757812 C 387.722656 313.523438 389.039062 310.394531 391.011719 311.136719 C 391.75 311.300781 392.160156 312.125 392.160156 312.945312 Z M 391.667969 312.945312 C 392.160156 311.054688 388.382812 312.125 389.941406 312.945312 C 390.519531 312.945312 391.09375 312.945312 391.667969 312.945312 Z M 391.667969 312.945312 "/>
<path style=" stroke:none;fill-rule:nonzero;fill:rgb(0%,0%,0%);fill-opacity:0.4;" d="M 393.3125 315.25 C 393.3125 314.015625 393.3125 312.699219 393.3125 311.382812 C 394.214844 311.382812 395.117188 311.382812 396.023438 311.382812 C 396.023438 312.617188 393.3125 311.054688 393.96875 312.863281 C 393.96875 313.605469 393.96875 314.425781 393.96875 315.25 C 393.804688 315.25 393.558594 315.25 393.394531 315.25 Z M 393.3125 315.25 "/>
<path style=" stroke:none;fill-rule:nonzero;fill:rgb(0%,0%,0%);fill-opacity:0.4;" d="M 396.761719 314.511719 C 397.335938 315.664062 400.210938 313.851562 398.488281 313.523438 C 398.078125 313.441406 396.679688 313.769531 397.253906 313.027344 C 398.078125 313.109375 399.800781 313.027344 398.40625 312.039062 C 397.910156 311.464844 396.105469 312.699219 396.925781 311.546875 C 398.570312 310.804688 400.375 312.535156 399.636719 314.179688 C 399.472656 315.414062 396.761719 316.074219 396.679688 314.757812 L 396.679688 314.675781 Z M 396.761719 314.511719 "/>
<path style=" stroke:none;fill-rule:nonzero;fill:rgb(0%,0%,0%);fill-opacity:0.4;" d="M 401.117188 314.34375 C 402.429688 313.933594 401.609375 316.238281 401.117188 314.839844 C 401.117188 314.675781 401.117188 314.511719 401.117188 314.34375 Z M 401.117188 314.34375 "/>
<path style=" stroke:none;fill-rule:nonzero;fill:rgb(0%,0%,0%);fill-opacity:0.4;" d="M 403.910156 314.675781 C 403.910156 315.332031 403.910156 315.992188 403.910156 316.730469 C 402.839844 316.898438 403.417969 315.496094 403.335938 314.839844 C 403.335938 313.6875 403.335938 312.535156 403.335938 311.382812 C 403.992188 311.054688 403.992188 312.453125 404.484375 311.382812 C 406.292969 310.558594 407.523438 313.191406 406.457031 314.59375 C 405.964844 315.414062 404.484375 315.578125 403.910156 314.59375 Z M 406.046875 313.359375 C 406.457031 311.300781 403.003906 311.792969 403.910156 313.6875 C 403.910156 315.414062 406.457031 315.003906 406.046875 313.359375 Z M 406.046875 313.359375 "/>
<path style=" stroke:none;fill-rule:nonzero;fill:rgb(0%,0%,0%);fill-opacity:0.4;" d="M 408.265625 313.277344 C 407.605469 314.839844 410.480469 315.167969 409.90625 313.359375 C 410.398438 311.382812 408.015625 311.136719 408.265625 313.277344 Z M 409.90625 316.730469 C 409.90625 316.074219 409.90625 315.414062 409.90625 314.757812 C 408.429688 316.566406 406.785156 313.359375 407.769531 312.039062 C 408.097656 310.558594 410.234375 312.289062 409.90625 311.136719 C 409.578125 310.230469 410.644531 309.652344 410.5625 310.886719 C 409.988281 312.699219 412.289062 310.394531 412.535156 312.039062 C 413.523438 313.359375 412.289062 316.320312 410.5625 314.921875 C 410.234375 315.414062 411.058594 316.980469 409.90625 316.648438 Z M 412.207031 313.277344 C 412.863281 311.710938 409.988281 311.382812 410.5625 313.191406 C 410.070312 315.167969 412.453125 315.414062 412.207031 313.277344 Z M 412.207031 313.277344 "/>
</g>
</svg>
