<?xml version="1.0" standalone="no"?>
<!DOCTYPE svg PUBLIC "-//W3C//DTD SVG 20010904//EN"
 "http://www.w3.org/TR/2001/REC-SVG-20010904/DTD/svg10.dtd">
<svg version="1.0" xmlns="http://www.w3.org/2000/svg"
 width="600.000000pt" height="600.000000pt" viewBox="0 0 600.000000 600.000000"
 preserveAspectRatio="xMidYMid meet">

<g transform="translate(0.000000,600.000000) scale(0.100000,-0.100000)"
fill="#000000" stroke="none">
<path d="M2882 5038 c-14 -7 -21 -17 -17 -26 4 -12 3 -13 -10 -2 -13 11 -15
10 -12 -6 1 -11 6 -25 10 -31 6 -9 3 -11 -8 -7 -8 4 -14 12 -13 18 2 6 -1 11
-7 11 -5 0 -9 -8 -9 -17 1 -10 -2 -16 -6 -13 -4 2 -15 -4 -24 -14 -14 -15 -14
-19 -3 -24 8 -3 15 -18 15 -33 0 -22 -2 -24 -10 -11 -5 10 -16 17 -25 17 -13
0 -13 -3 -3 -16 11 -12 11 -15 0 -12 -8 2 -16 -5 -18 -16 -2 -11 0 -16 6 -12
7 4 6 -5 -1 -23 -9 -24 -7 -40 9 -86 10 -32 25 -60 31 -62 7 -3 11 -9 8 -13
-3 -5 4 -11 15 -15 11 -4 18 -11 15 -16 -4 -5 1 -9 11 -9 9 0 22 -7 29 -17 7
-9 26 -16 43 -16 17 0 29 -5 25 -10 -3 -5 4 -6 18 -1 13 4 32 7 42 6 9 0 17 3
17 9 0 5 3 8 8 8 27 -5 45 5 62 34 11 17 20 28 20 22 0 -5 9 1 20 15 15 19 16
28 7 39 -9 11 -9 13 0 8 27 -16 43 117 21 170 -6 15 -10 33 -10 39 3 18 -84
108 -96 100 -7 -4 -12 -2 -12 4 0 7 -7 9 -16 6 -8 -3 -13 -2 -10 3 8 12 -96
11 -122 -1z m-82 -262 c0 -3 -4 -8 -10 -11 -5 -3 -10 -1 -10 4 0 6 5 11 10 11
6 0 10 -2 10 -4z m-23 -58 c-3 -8 -6 -5 -6 6 -1 11 2 17 5 13 3 -3 4 -12 1
-19z m311 -38 c-7 -10 -14 -18 -15 -16 -6 6 9 36 18 36 5 0 4 -9 -3 -20z
m-204 -55 c11 -8 16 -15 10 -15 -5 0 -18 7 -28 15 -11 8 -16 15 -10 15 5 0 18
-7 28 -15z m181 -3 c-3 -3 -15 -6 -27 -7 -20 -2 -20 -1 -3 11 17 13 43 9 30
-4z m-60 -2 c3 -6 -1 -7 -9 -4 -18 7 -21 14 -7 14 6 0 13 -4 16 -10z m-45 -20
c8 -5 11 -10 5 -10 -5 0 -17 5 -25 10 -8 5 -10 10 -5 10 6 0 17 -5 25 -10z"/>
<path d="M2760 4916 c0 -2 7 -6 15 -10 8 -3 15 -1 15 4 0 6 -7 10 -15 10 -8 0
-15 -2 -15 -4z"/>
<path d="M2770 4521 c0 -5 -7 -12 -16 -15 -8 -3 -12 -2 -9 4 3 6 2 10 -4 10
-5 0 -12 -4 -16 -10 -3 -5 -13 -6 -22 -3 -11 4 -14 3 -9 -5 4 -7 2 -10 -6 -7
-20 8 -93 -21 -90 -35 1 -6 -2 -9 -7 -5 -13 7 -88 -39 -117 -71 -12 -13 -25
-20 -29 -16 -5 4 -5 1 -1 -5 4 -8 2 -13 -7 -13 -17 0 -49 -34 -40 -43 3 -4 -1
-7 -10 -7 -16 0 -22 -12 -18 -33 1 -5 -3 -6 -8 -3 -9 6 -43 -33 -66 -73 -6
-10 -4 -12 6 -6 8 5 11 5 7 0 -4 -4 -3 -17 3 -29 10 -20 9 -20 -5 -2 -13 16
-18 17 -31 6 -8 -7 -12 -16 -9 -21 3 -5 0 -9 -6 -9 -7 0 -9 -7 -6 -17 4 -10 4
-14 0 -10 -12 12 -56 -95 -58 -140 0 -23 -5 -41 -10 -40 -18 3 -28 -88 -29
-258 -1 -239 0 -245 18 -245 10 0 15 11 16 33 3 57 4 62 15 82 11 20 27 71 29
90 0 6 4 16 8 23 5 6 5 12 2 12 -3 0 2 14 12 30 15 27 16 33 4 53 -13 20 -13
21 2 8 15 -12 18 -10 26 10 5 15 5 29 -1 36 -7 8 -3 10 14 6 18 -4 20 -3 8 6
-13 9 -12 11 4 11 14 0 17 6 14 25 -4 21 -3 23 9 13 8 -6 13 -7 12 -2 -4 16
13 48 36 69 12 11 23 25 24 30 0 6 7 10 14 10 6 1 11 6 9 13 -1 7 6 15 15 19
10 4 20 9 23 13 15 17 88 68 108 74 12 4 20 11 18 15 -3 4 12 7 32 6 20 -1 40
3 43 8 4 5 19 -4 35 -20 32 -31 40 -87 17 -111 -11 -11 -16 -33 -12 -58 0 -4
-3 -10 -9 -13 -5 -3 -14 -19 -19 -36 -6 -16 -14 -39 -19 -49 -6 -15 -4 -18 7
-12 8 4 6 1 -3 -7 -10 -8 -15 -16 -12 -20 3 -3 -2 -19 -10 -36 -9 -17 -15 -34
-15 -38 1 -4 -1 -15 -4 -23 -29 -72 -35 -171 -12 -190 8 -7 12 -16 9 -21 -3
-5 0 -9 7 -9 7 0 10 -3 6 -6 -10 -10 26 -41 63 -53 40 -12 243 -9 390 7 118
13 335 17 375 7 34 -9 102 -44 123 -63 7 -7 18 -9 24 -6 7 5 8 2 3 -6 -6 -10
-4 -12 9 -7 10 4 27 0 39 -8 12 -8 17 -15 11 -15 -5 0 -16 6 -23 13 -11 10
-14 9 -18 -1 -3 -6 -10 -9 -16 -6 -7 4 0 -6 14 -22 29 -31 81 -136 85 -169 1
-11 7 -40 13 -65 11 -53 18 -247 8 -256 -4 -4 -7 -12 -7 -18 0 -5 10 0 21 13
16 17 18 26 10 34 -6 6 -11 15 -11 21 0 5 6 1 14 -9 13 -18 14 -18 26 5 7 14
19 31 27 38 7 8 11 17 8 22 -3 4 2 11 11 14 9 4 14 9 10 13 -3 3 1 14 10 24
10 11 14 25 10 36 -4 9 -4 14 0 10 10 -9 36 43 30 60 -3 7 0 13 5 13 6 0 9 9
6 20 -3 10 -1 20 4 22 23 8 43 318 20 318 -4 0 -6 11 -3 25 3 16 -1 27 -11 31
-9 3 -14 14 -12 25 2 10 -1 19 -6 19 -6 0 -7 5 -4 10 4 6 1 9 -6 8 -7 -2 -13
2 -14 9 0 6 -4 15 -9 20 -5 5 -6 2 -1 -7 7 -13 6 -13 -6 -1 -11 10 -11 15 -2
18 8 3 5 12 -10 27 -12 13 -28 21 -36 18 -8 -3 -12 -1 -9 4 3 5 0 15 -8 22 -8
7 -14 10 -14 6 0 -3 -7 -1 -15 6 -8 7 -24 10 -35 7 -11 -3 -23 0 -27 5 -3 7
-1 8 5 4 7 -4 12 -3 12 2 0 24 -248 29 -335 6 -83 -21 -331 -30 -370 -13 -16
7 -33 12 -36 11 -10 -2 -28 49 -30 83 -2 41 11 95 24 95 6 0 8 3 4 6 -3 3 3
15 14 27 22 24 25 49 5 41 -9 -3 -19 4 -26 18 -11 22 -11 22 5 3 14 -17 17
-18 25 -5 7 10 10 11 10 3 0 -7 5 -13 10 -13 6 0 10 6 10 13 0 6 7 25 15 40
33 65 52 210 34 264 -7 21 -13 43 -13 48 -2 30 -42 95 -58 95 -10 0 -18 5 -18
11 0 5 5 7 10 4 6 -3 10 -4 10 -1 0 8 -63 41 -72 38 -5 -1 -8 2 -8 7 0 11 -97
41 -134 41 -14 0 -26 -4 -26 -9z m-169 -88 c-10 -4 -10 -7 -1 -13 9 -5 8 -9
-3 -13 -13 -5 -16 5 -8 31 1 1 7 2 14 1 8 0 8 -2 -2 -6z m-44 -18 c0 -8 -4
-12 -9 -9 -5 3 -6 10 -3 15 9 13 12 11 12 -6z m424 -2 c13 -16 12 -17 -3 -4
-10 7 -18 15 -18 17 0 8 8 3 21 -13z m43 -1 c3 -5 -1 -9 -9 -9 -8 0 -12 4 -9
9 3 4 7 8 9 8 2 0 6 -4 9 -8z m-549 -71 c3 -5 2 -12 -3 -15 -5 -3 -9 1 -9 9 0
17 3 19 12 6z m578 -6 c-3 -9 -8 -14 -10 -11 -3 3 -2 9 2 15 9 16 15 13 8 -4z
m7 -100 c0 -8 -2 -15 -4 -15 -2 0 -6 7 -10 15 -3 8 -1 15 4 15 6 0 10 -7 10
-15z m-627 -170 c-3 -9 -8 -14 -10 -11 -3 3 -2 9 2 15 9 16 15 13 8 -4z m345
-5 c-7 -11 -19 -20 -27 -20 -8 0 -4 8 10 20 30 25 32 25 17 0z m-268 -5 c-7
-8 -17 -15 -23 -15 -6 0 -2 7 9 15 25 19 30 19 14 0z m-50 1 c0 -2 -7 -9 -15
-16 -13 -11 -14 -10 -9 4 5 14 24 23 24 12z m-239 -39 c-10 -9 -11 -8 -5 6 3
10 9 15 12 12 3 -3 0 -11 -7 -18z m169 -37 c0 -5 -2 -10 -4 -10 -3 0 -8 5 -11
10 -3 6 -1 10 4 10 6 0 11 -4 11 -10z m-154 -20 c0 -12 -4 -16 -9 -11 -5 5 -6
14 -3 20 10 15 12 14 12 -9z m689 -139 c-3 -6 -11 -11 -16 -11 -5 0 -4 6 3 14
14 16 24 13 13 -3z m-234 -30 c-8 -5 -10 -14 -6 -22 6 -11 5 -11 -5 -2 -14 12
-6 33 13 33 8 0 7 -3 -2 -9z m249 -46 c7 -9 8 -15 2 -15 -5 0 -12 7 -16 15 -3
8 -4 15 -2 15 2 0 9 -7 16 -15z m9 -44 c-6 -2 -18 4 -27 13 -15 15 -15 15 10
4 15 -7 23 -15 17 -17z m698 13 c-3 -3 -12 -4 -19 -1 -8 3 -5 6 6 6 11 1 17
-2 13 -5z m140 -70 c-9 -9 -28 6 -21 18 4 6 10 6 17 -1 6 -6 8 -13 4 -17z
m-1594 -9 c-3 -9 -8 -14 -10 -11 -3 3 -2 9 2 15 9 16 15 13 8 -4z m27 -15 c0
-5 -5 -10 -11 -10 -5 0 -7 5 -4 10 3 6 8 10 11 10 2 0 4 -4 4 -10z m1590 -4
c0 -2 -9 -6 -20 -9 -11 -3 -18 -1 -14 4 5 9 34 13 34 5z m57 -64 c15 -20 17
-29 8 -29 -8 0 -13 3 -12 6 1 3 -4 16 -11 29 -17 31 -10 28 15 -6z m-1674 -7
c-3 -8 -10 -15 -15 -15 -7 0 -6 5 1 13 6 8 7 18 3 22 -4 5 -2 5 5 1 7 -4 10
-13 6 -21z m457 -31 c0 -8 -19 -13 -24 -6 -3 5 1 9 9 9 8 0 15 -2 15 -3z m70
-68 c0 -2 -8 -10 -17 -17 -16 -13 -17 -12 -4 4 13 16 21 21 21 13z m863 -23
c-4 -11 -3 -14 5 -9 18 11 14 0 -5 -15 -12 -10 -15 -11 -9 -1 6 10 1 11 -21 7
-24 -5 -25 -4 -7 4 12 5 25 14 29 20 10 17 15 13 8 -6z m-816 -9 c-3 -3 -12
-4 -19 -1 -8 3 -5 6 6 6 11 1 17 -2 13 -5z m893 -114 c6 -11 8 -20 6 -20 -3 0
-10 9 -16 20 -6 11 -8 20 -6 20 3 0 10 -9 16 -20z m25 -30 c-3 -5 -1 -10 6
-10 7 0 10 -3 6 -6 -9 -9 -28 6 -22 17 4 5 8 9 11 9 3 0 2 -4 -1 -10z m56 -17
c13 -16 12 -17 -3 -4 -17 13 -22 21 -14 21 2 0 10 -8 17 -17z m-6 -32 c-6 -5
-25 10 -25 20 0 5 6 4 14 -3 8 -7 12 -15 11 -17z m18 -36 c-3 -9 -8 -14 -10
-11 -3 3 -2 9 2 15 9 16 15 13 8 -4z m37 -229 c0 -2 -7 -7 -16 -10 -8 -3 -12
-2 -9 4 6 10 25 14 25 6z m34 -4 c3 -5 -1 -9 -9 -9 -8 0 -12 4 -9 9 3 4 7 8 9
8 2 0 6 -4 9 -8z m-47 -57 c0 -8 -4 -12 -9 -9 -5 3 -6 10 -3 15 9 13 12 11 12
-6z"/>
<path d="M2171 3394 c0 -11 3 -14 6 -6 3 7 2 16 -1 19 -3 4 -6 -2 -5 -13z"/>
<path d="M3280 3359 c-58 -4 -172 -12 -255 -18 -82 -6 -249 -18 -370 -26 -250
-16 -606 -40 -805 -55 -74 -5 -145 -9 -158 -10 -38 0 -24 -39 22 -63 37 -20
46 -20 305 -8 352 15 1135 62 1291 77 l65 6 47 -41 c175 -155 169 -472 -12
-586 -35 -22 -41 -23 -161 -14 -116 8 -243 13 -1014 40 -337 12 -496 7 -544
-17 -18 -9 -30 -21 -28 -27 5 -15 83 -22 462 -43 165 -8 361 -19 435 -24 74
-4 236 -13 360 -19 124 -6 272 -16 330 -21 196 -19 216 -14 293 69 80 86 117
194 117 342 0 197 -59 328 -185 410 -53 34 -71 37 -195 28z"/>
<path d="M1820 2520 c0 -7 -6 -10 -13 -7 -8 3 -27 -5 -43 -18 -28 -22 -28 -24
-11 -43 14 -15 15 -21 5 -25 -10 -4 -10 -8 2 -17 13 -10 13 -11 0 -7 -8 2 -15
15 -15 28 0 13 -6 24 -12 23 -30 -2 -36 -4 -30 -11 4 -3 -2 -13 -14 -21 -11
-8 -18 -20 -15 -28 3 -7 0 -16 -6 -20 -7 -5 -8 -2 -3 7 6 11 5 11 -5 2 -15
-14 -5 -47 11 -37 7 4 9 3 6 -4 -4 -5 -16 -8 -27 -5 -11 3 -20 1 -20 -5 0 -6
-3 -18 -7 -28 -5 -13 -3 -15 8 -9 12 8 12 6 1 -8 -8 -9 -11 -21 -7 -27 4 -6 1
-9 -7 -8 -17 4 -30 -115 -21 -197 4 -33 6 -64 5 -68 -2 -5 5 -33 15 -63 11
-35 22 -54 32 -54 12 0 13 -2 4 -8 -10 -6 0 -25 33 -71 34 -47 48 -60 58 -52
17 14 29 1 14 -16 -9 -11 -7 -12 7 -7 14 6 16 4 10 -6 -6 -10 -4 -12 8 -7 10
4 16 2 14 -6 -1 -9 25 -11 103 -9 58 2 106 6 107 10 2 4 55 5 119 4 64 -2 114
0 111 5 -3 4 38 7 91 6 54 -1 138 2 187 8 87 10 155 13 390 22 243 8 530 28
541 38 7 5 24 7 38 3 16 -4 33 -1 43 7 9 8 14 9 10 3 -4 -6 2 -10 15 -9 25 2
35 20 17 31 -8 5 -10 3 -4 -7 8 -12 6 -12 -8 -1 -9 8 -22 10 -28 6 -7 -4 -9
-3 -6 3 4 6 -3 13 -16 17 -35 9 -448 6 -597 -5 -74 -5 -195 -9 -268 -9 -73 1
-136 -1 -141 -4 -4 -3 -84 -7 -177 -10 -275 -7 -424 -18 -424 -30 0 -6 -4 -5
-9 3 -8 12 -12 13 -25 1 -14 -11 -16 -10 -10 4 4 9 3 16 -2 15 -21 -4 -35 2
-28 12 4 6 -3 5 -17 -2 l-24 -14 23 -3 c25 -4 28 -12 10 -31 -11 -11 -10 -13
3 -8 9 3 16 0 16 -8 0 -10 -5 -11 -19 -4 -21 11 -23 25 -5 32 9 4 8 6 -2 6 -8
1 -20 -7 -28 -16 -13 -16 -13 -16 -3 5 6 12 7 22 3 22 -4 0 -2 5 4 11 12 12 5
52 -8 43 -5 -3 -6 2 -3 10 4 11 0 16 -11 16 -9 0 -14 4 -10 9 3 5 1 12 -5 16
-5 3 -10 1 -10 -6 0 -7 -3 -9 -6 -6 -4 4 -1 14 7 24 9 11 10 14 2 9 -8 -4 -13
-2 -13 4 0 6 -6 8 -12 4 -10 -5 -10 -4 -2 5 9 10 8 19 -2 39 -8 15 -11 35 -8
46 3 10 2 16 -3 13 -17 -10 1 162 23 225 8 22 14 42 14 43 0 1 -11 1 -24 0
-13 -2 -29 1 -37 5 -8 5 4 7 29 5 35 -3 43 1 58 22 9 14 12 23 7 20 -11 -7
-10 29 1 40 4 5 7 3 6 -2 -5 -24 2 -23 31 4 17 17 28 34 25 40 -4 5 -1 13 5
17 7 4 9 3 5 -4 -3 -6 -2 -13 4 -17 6 -3 13 0 16 8 3 10 15 14 32 11 97 -13
238 -24 367 -29 83 -3 161 -8 175 -10 27 -6 417 -28 792 -46 236 -12 287 -9
313 17 8 9 15 12 15 7 0 -9 20 18 20 28 0 3 -24 7 -52 8 -29 1 -61 4 -71 7
-37 12 -257 19 -257 9 0 -6 -3 -5 -8 1 -4 6 -53 14 -112 17 -58 4 -166 11
-240 17 -398 29 -414 30 -422 17 -5 -7 -8 -8 -8 -1 0 6 -6 11 -12 11 -72 4
-182 14 -187 17 -4 3 -93 7 -199 11 -145 5 -192 4 -192 -5z m177 -26 c-3 -3
-12 -4 -19 -1 -8 3 -5 6 6 6 11 1 17 -2 13 -5z m973 -64 c-12 -8 -12 -10 -1
-10 8 0 12 -3 8 -6 -9 -9 -28 6 -22 17 4 5 12 9 18 9 7 0 6 -4 -3 -10z m-86
-19 c3 -4 -6 -6 -19 -3 -14 2 -25 6 -25 8 0 8 39 4 44 -5z m243 3 c-3 -3 -12
-4 -19 -1 -8 3 -5 6 6 6 11 1 17 -2 13 -5z m-50 -30 c-3 -3 -12 -4 -19 -1 -8
3 -5 6 6 6 11 1 17 -2 13 -5z m250 0 c-3 -3 -12 -4 -19 -1 -8 3 -5 6 6 6 11 1
17 -2 13 -5z m0 -20 c-3 -3 -12 -4 -19 -1 -8 3 -5 6 6 6 11 1 17 -2 13 -5z
m-1632 -86 c5 4 5 1 1 -6 -6 -10 -11 -10 -22 -1 -8 6 -14 14 -14 16 0 3 6 0
13 -6 8 -6 18 -7 22 -3z m-25 -30 c0 -5 -7 -3 -15 6 -8 8 -15 18 -15 22 0 3 7
1 15 -6 8 -7 15 -17 15 -22z m40 -24 c0 -8 -19 -13 -24 -6 -3 5 1 9 9 9 8 0
15 -2 15 -3z m-37 -238 c4 -10 1 -13 -8 -9 -8 3 -12 9 -9 14 7 12 11 11 17 -5z
m33 -134 c-4 -3 -14 2 -24 12 -16 18 -16 18 6 6 13 -6 21 -14 18 -18z m25 -26
c-23 -13 -23 -14 -5 -19 14 -3 15 -5 3 -6 -9 0 -23 7 -30 16 -8 9 -9 14 -4 11
6 -4 17 -3 25 3 8 5 20 9 25 8 6 0 -1 -6 -14 -13z m1633 -15 c4 -5 -3 -7 -14
-4 -23 6 -26 13 -6 13 8 0 17 -4 20 -9z m-1649 -29 c-3 -3 -11 0 -18 7 -9 10
-8 11 6 5 10 -3 15 -9 12 -12z m1032 12 c-3 -3 -12 -4 -19 -1 -8 3 -5 6 6 6
11 1 17 -2 13 -5z m-907 -78 c0 -2 -8 -10 -17 -17 -16 -13 -17 -12 -4 4 13 16
21 21 21 13z"/>
<path d="M3329 1725 c-3 -2 -115 -11 -250 -20 -134 -8 -305 -20 -379 -25 -208
-16 -574 -40 -792 -53 -108 -7 -200 -15 -204 -19 -14 -14 26 -57 63 -67 39
-11 386 -1 668 19 330 23 652 44 885 57 l95 5 47 -41 c28 -25 59 -67 80 -108
32 -64 33 -70 33 -187 0 -93 -4 -129 -17 -156 -26 -54 -63 -100 -104 -128
l-37 -25 -166 7 c-91 4 -249 11 -351 16 -461 21 -818 32 -975 28 -179 -4 -225
-14 -225 -50 0 -10 1 -18 3 -18 1 -1 126 -7 277 -15 351 -18 780 -42 985 -55
88 -5 241 -14 339 -19 l180 -11 35 27 c142 108 199 270 173 492 -9 76 -19 114
-43 161 -59 117 -161 190 -264 190 -28 0 -54 -2 -56 -5z"/>
</g>
</svg>
